HIERARCHY
ROOT Hips
{
	OFFSET 47.603298 5.307632 49.449699
	CHANNELS 6 Xposition Yposition Zposition Xrotation Yrotation Zrotation
	JOINT spine
	{
		OFFSET 0.000000 -0.359108 6.244801
		CHANNELS 3 Xrotation Yrotation Zrotation
		JOINT spine1
		{
			OFFSET 0.000000 -0.000001 9.069408
			CHANNELS 3 Xrotation Yrotation Zrotation
			JOINT spine2
			{
				OFFSET 0.000000 -0.000001 8.690140
				CHANNELS 3 Xrotation Yrotation Zrotation
				JOINT Neck
				{
					OFFSET 0.000000 -1.063724 22.311195
					CHANNELS 3 Xrotation Yrotation Zrotation
					JOINT Head
					{
						OFFSET 0.000000 -0.000001 6.740807
						CHANNELS 3 Xrotation Yrotation Zrotation
						End Site
						{
							OFFSET 0.000000 5.380968 16.316498
						}
					}
				}
				JOINT RightShoulder
				{
					OFFSET -3.659161 0.509512 9.384682
					CHANNELS 3 Xrotation Yrotation Zrotation
					JOINT RightArm
					{
						OFFSET 0.000000 -0.000002 12.308899
						CHANNELS 3 Xrotation Yrotation Zrotation
						JOINT RightArmRoll
						{
							OFFSET 0.000000 -0.000001 6.213753
							CHANNELS 3 Xrotation Yrotation Zrotation
							JOINT RightForeArm
							{
								OFFSET 0.000000 -0.000003 18.098503
								CHANNELS 3 Xrotation Yrotation Zrotation
								JOINT RightForeArmRoll
								{
									OFFSET 0.000000 -0.000001 6.972801
									CHANNELS 3 Xrotation Yrotation Zrotation
									JOINT RightHand
									{
										OFFSET 0.000000 -0.000002 13.992897
										CHANNELS 3 Xrotation Yrotation Zrotation
										End Site
										{
											OFFSET 0.000000 0.000000 0.100006
										}
									}
								}
							}
						}
					}
				}
				JOINT LeftShoulder
				{
					OFFSET 3.659161 0.509512 9.384682
					CHANNELS 3 Xrotation Yrotation Zrotation
					JOINT LeftArm
					{
						OFFSET 0.000000 -0.000002 12.308899
						CHANNELS 3 Xrotation Yrotation Zrotation
						JOINT LeftArmRoll
						{
							OFFSET 0.000000 -0.000001 6.213753
							CHANNELS 3 Xrotation Yrotation Zrotation
							JOINT LeftForeArm
							{
								OFFSET 0.000000 -0.000003 18.098503
								CHANNELS 3 Xrotation Yrotation Zrotation
								JOINT LeftForeArmRoll
								{
									OFFSET 0.000000 -0.000001 6.972794
									CHANNELS 3 Xrotation Yrotation Zrotation
									JOINT LeftHand
									{
										OFFSET 0.000000 -0.000002 13.992905
										CHANNELS 3 Xrotation Yrotation Zrotation
										End Site
										{
											OFFSET 0.000000 0.000000 0.100006
										}
									}
								}
							}
						}
					}
				}
			}
		}
	}
	JOINT RightUpLeg
	{
		OFFSET -5.535160 0.851454 -1.014999
		CHANNELS 3 Xrotation Yrotation Zrotation
		JOINT RightUpLegRoll
		{
			OFFSET 0.000000 -0.000002 16.407501
			CHANNELS 3 Xrotation Yrotation Zrotation
			JOINT RightLeg
			{
				OFFSET 0.000000 0.000003 -20.318100
				CHANNELS 3 Xrotation Yrotation Zrotation
				JOINT RightLegRoll
				{
					OFFSET 0.000000 -0.000003 20.384598
					CHANNELS 3 Xrotation Yrotation Zrotation
					JOINT RightFoot
					{
						OFFSET 0.000000 -0.000003 16.966805
						CHANNELS 3 Xrotation Yrotation Zrotation
						JOINT RightToeBase
						{
							OFFSET 0.000000 -0.000002 14.183403
							CHANNELS 3 Xrotation Yrotation Zrotation
							End Site
							{
								OFFSET 0.006012 0.791744 6.868896
							}
						}
					}
				}
			}
		}
	}
	JOINT LeftUpLeg
	{
		OFFSET 5.535160 0.851454 -1.014999
		CHANNELS 3 Xrotation Yrotation Zrotation
		JOINT LeftUpLegRoll
		{
			OFFSET 0.000000 -0.000002 16.407600
			CHANNELS 3 Xrotation Yrotation Zrotation
			JOINT LeftLeg
			{
				OFFSET 0.000000 -0.000003 20.318100
				CHANNELS 3 Xrotation Yrotation Zrotation
				JOINT LeftLegRoll
				{
					OFFSET 0.000000 -0.000003 20.573097
					CHANNELS 3 Xrotation Yrotation Zrotation
					JOINT LeftFoot
					{
						OFFSET 0.000000 -0.000003 16.778297
						CHANNELS 3 Xrotation Yrotation Zrotation
						JOINT LeftToeBase
						{
							OFFSET 0.000000 -0.000002 14.183395
							CHANNELS 3 Xrotation Yrotation Zrotation
							End Site
							{
								OFFSET -0.026943 0.791745 6.868896
							}
						}
					}
				}
			}
		}
	}
}
MOTION
Frames: 7
Frame Time: 0.041667
50.175102 -38.994301 84.461990 0.317126 0.296043 -3.635109 -1.250230 0.119628 0.028414 1.502303 0.238893 0.058252 3.147378 0.239573 0.055387 10.518020 -1.271625 -1.705266 9.331276 -0.620822 -1.459561 -9.389997 -65.375121 -11.433890 -29.269113 -112.978186 -22.527279 0.000002 -0.000002 0.000001 14.022107 -12.125312 1.000071 -0.000000 0.000008 -3.000002 -5.000161 -7.998702 0.000168 -20.761869 62.132797 24.496045 -19.055313 115.818616 5.225045 0.000001 -0.000000 -0.000001 20.041223 4.285276 -0.189970 -0.000002 -0.000003 3.000002 -5.000291 7.999528 -0.000080 -8.458508 -176.713058 -0.032846 179.999991 -0.000005 -0.870994 171.048974 -1.294050 -0.928812 -0.000002 -0.000001 0.039832 68.470406 6.026121 4.377628 25.458699 -7.354229 0.002600 -1.439286 179.128268 -1.248938 -0.000005 -0.000004 -1.105470 -9.864847 1.661638 0.917978 0.000000 0.000001 -0.215553 71.557003 -6.904265 -1.908831 27.115006 7.363549 -0.208624 
50.204601 -38.950203 84.452194 0.347701 0.284934 -3.624949 -1.255561 0.121274 0.024451 1.491634 0.242228 0.050356 3.136718 0.242813 0.047452 10.542341 -1.275153 -1.704581 9.341972 -0.613500 -1.459916 -9.367046 -65.371713 -11.407486 -29.307474 -112.992550 -22.592625 0.000001 -0.000001 -0.000000 14.055171 -12.138303 1.005221 -0.000002 0.000008 -3.000001 -5.000159 -7.998703 0.000167 -20.749218 62.139770 24.481210 -19.125324 115.828110 5.344359 0.000001 -0.000000 -0.000000 20.079365 4.318846 -0.196444 -0.000001 -0.000003 3.000001 -5.000292 7.999530 -0.000078 -8.504577 -176.688729 -0.023488 179.999991 -0.000005 -0.869997 171.054383 -1.308886 -0.929014 -0.000002 -0.000001 0.039349 68.449137 6.020502 4.392216 25.458692 -7.354230 0.002601 -1.491844 179.152283 -1.223313 -0.000005 -0.000004 -1.105470 -9.873762 1.657445 0.917733 -0.000001 0.000001 -0.215531 71.556402 -6.907946 -1.898167 27.104994 7.363548 -0.207853 
50.131100 -39.026402 84.460892 0.379429 0.273076 -3.613889 -1.261104 0.123015 0.020301 1.480574 0.245757 0.042089 3.125659 0.246240 0.039143 10.565558 -1.277760 -1.703720 9.353285 -0.606680 -1.460125 -9.344278 -65.367082 -11.381187 -29.345795 -113.006921 -22.658415 0.000001 -0.000002 0.000001 14.088854 -12.151256 1.010446 0.000001 0.000008 -3.000001 -5.000159 -7.998706 0.000168 -20.737245 62.147051 24.467163 -19.195980 115.837741 5.463758 0.000001 -0.000000 -0.000001 20.118302 4.351858 -0.202907 -0.000001 -0.000002 3.000000 -5.000292 7.999528 -0.000079 -8.552317 -176.662447 -0.013250 179.999991 -0.000005 -0.869000 171.059260 -1.323721 -0.928241 -0.000002 -0.000001 0.038887 68.427875 6.014901 4.406805 25.458690 -7.354231 0.002600 -1.545931 179.177281 -1.196448 -0.000005 -0.000004 -1.105470 -9.882292 1.652831 0.917454 0.000000 0.000001 -0.215499 71.555179 -6.911639 -1.887445 27.094891 7.363554 -0.207077 
50.141102 -39.018806 84.462593 0.411966 0.260701 -3.602175 -1.266772 0.124824 0.016020 1.469244 0.249423 0.033562 3.114330 0.249802 0.030573 10.587969 -1.279731 -1.702735 9.365041 -0.600212 -1.460224 -9.321642 -65.361727 -11.355012 -29.381981 -113.023095 -22.722187 0.000001 -0.000002 0.000001 14.122743 -12.164189 1.015671 -0.000001 0.000008 -3.000001 -5.000160 -7.998703 0.000168 -20.725914 62.154756 24.453855 -19.267095 115.847481 5.583059 0.000001 -0.000000 -0.000001 20.157743 4.384492 -0.209364 -0.000001 -0.000002 3.000001 -5.000291 7.999528 -0.000077 -8.601234 -176.636164 -0.002208 179.999991 -0.000005 -0.868003 171.063754 -1.339552 -0.927617 -0.000002 -0.000001 0.038439 68.406708 6.009218 4.421471 25.458690 -7.354229 0.002600 -1.601076 179.204315 -1.168760 -0.000005 -0.000004 -1.105470 -9.890551 1.647922 0.917152 0.000000 0.000001 -0.215458 71.553526 -6.915340 -1.876651 27.084789 7.363550 -0.206308 
50.187000 -38.965103 84.455399 0.444968 0.248036 -3.590097 -1.272512 0.126670 0.011665 1.457764 0.253168 0.024887 3.102841 0.253441 0.021854 10.609982 -1.281330 -1.701677 9.377026 -0.593944 -1.460271 -9.299084 -65.355874 -11.328894 -29.418127 -113.039262 -22.786127 0.000001 -0.000002 0.000001 14.156939 -12.177001 1.020931 -0.000000 0.000008 -3.000001 -5.000163 -7.998701 0.000168 -20.714885 62.162617 24.440908 -19.338461 115.857289 5.702383 0.000001 -0.000001 -0.000003 20.197493 4.416910 -0.215843 -0.000002 -0.000002 3.000003 -5.000294 7.999529 -0.000078 -8.650845 -176.607942 0.008977 179.999991 -0.000005 -0.867006 171.068016 -1.356356 -0.927151 -0.000002 -0.000001 0.038000 68.385534 6.003516 4.436232 25.458692 -7.354230 0.002600 -1.656839 179.231308 -1.140586 -0.000005 -0.000004 -1.105470 -9.898649 1.642828 0.916833 -0.000000 0.000001 -0.215414 71.551682 -6.919081 -1.865775 27.074578 7.363550 -0.205526 
50.172001 -38.965305 84.457596 0.478085 0.235310 -3.577914 -1.278285 0.128526 0.007291 1.446235 0.256937 0.016177 3.091312 0.257103 0.013099 10.631895 -1.282850 -1.700604 9.389085 -0.587726 -1.460300 -9.276508 -65.349802 -11.302746 -29.454224 -113.055449 -22.850048 0.000001 -0.000002 0.000002 14.191041 -12.189903 1.026203 -0.000000 0.000008 -3.000001 -5.000161 -7.998704 0.000168 -20.703965 62.170547 24.428086 -19.409845 115.867138 5.821623 0.000000 -0.000000 -0.000002 20.237347 4.449260 -0.222356 -0.000004 -0.000002 3.000001 -5.000288 7.999530 -0.000078 -8.700612 -176.580717 0.020392 179.999991 -0.000005 -0.864997 171.072237 -1.373173 -0.926698 -0.000002 -0.000001 0.037563 68.364470 5.997803 4.450981 25.458699 -7.354230 0.002600 -1.712756 179.258328 -1.112343 -0.000005 -0.000004 -1.105470 -9.906706 1.637704 0.916511 0.000001 0.000001 -0.215368 71.549715 -6.922824 -1.855007 27.064476 7.363544 -0.204766 
50.207298 -38.929802 84.453896 0.510970 0.222749 -3.565897 -1.284010 0.130365 0.002956 1.434785 0.260670 0.007543 3.079862 0.260731 0.004421 10.654108 -1.284535 -1.699562 9.401019 -0.581409 -1.460370 -9.253966 -65.344140 -11.276647 -29.490274 -113.071644 -22.913849 0.000001 -0.000002 0.000001 14.225148 -12.202800 1.031511 -0.000003 0.000008 -3.000003 -5.000161 -7.998704 0.000167 -20.692883 62.178415 24.415080 -19.481050 115.877001 5.940886 0.000001 -0.000000 -0.000001 20.277112 4.481708 -0.228931 -0.000001 -0.000002 2.999999 -5.000289 7.999530 -0.000078 -8.750059 -176.552494 0.031370 179.999991 -0.000005 -0.864000 171.076554 -1.388992 -0.926069 -0.000002 -0.000001 0.037122 68.343296 5.992068 4.465731 25.458693 -7.354231 0.002601 -1.768358 179.285335 -1.084416 -0.000005 -0.000004 -1.105470 -9.914854 1.632660 0.916194 -0.000000 0.000001 -0.215325 71.547966 -6.926565 -1.844024 27.054268 7.363554 -0.203990 
